<svg width="92" height="58" fill="none" xmlns="http://www.w3.org/2000/svg"><path d="M63.668 58L92 46.952V11.048L63.668 0v58z" fill="url(#paint0_linear)"/><path d="M63.668 58L0 40.791V17.21L63.668 0v58z" fill="url(#paint1_linear)"/><path d="M25.467 17.209V40.79H20.48V26.238l-6.26 9.454h-2.972l-6.26-9.454v14.553H0V17.21h4.669l8.065 12.216 8.064-12.216h4.67zM29.5 40.791V17.21h4.987v9.348h3.82l5.942-9.348h5.624l-7.64 11.472 8.065 12.11h-5.624l-6.367-9.666h-3.82v9.666h-4.988zm34.168 0V17.21h-9.232l-2.971 4.567h7.215v19.015h4.988zm9.125-23.582H67.7v4.567h5.093V17.21z" fill="#fff"/><defs><linearGradient id="paint0_linear" x1="91.156" y1="47.852" x2="53.446" y2="10.182" gradientUnits="userSpaceOnUse"><stop stop-color="#2D2E83"/><stop offset="1" stop-color="#4A84C5"/></linearGradient><linearGradient id="paint1_linear" x1="14.336" y1="55.105" x2="66.555" y2="2.942" gradientUnits="userSpaceOnUse"><stop stop-color="#2D2E83"/><stop offset="1" stop-color="#4A84C5"/></linearGradient></defs></svg>