<svg width="462" height="69" fill="none" xmlns="http://www.w3.org/2000/svg"><path d="M33.648.75l-13.013 19.5L7.568.75H0v37.5h8.167V15.107L18.24 30.214h4.737l10.072-15.053V38.25h8.167V.75h-7.568zM47.272 19.5c0 10.179 6.752 19.5 20.254 19.5 13.503 0 20.255-9.321 20.255-19.5S81.029 0 67.526 0C54.024 0 47.272 9.321 47.272 19.5zm32.124 0c0 6.59-3.975 12.054-11.87 12.054-7.949 0-11.924-5.465-11.924-12.054 0-6.59 3.975-12.054 11.924-12.054 7.895 0 11.87 5.465 11.87 12.054zM93.846.75v37.5h8.167V25.929h6.207c9.202 0 16.443-2.893 16.443-12.59 0-9.696-7.241-12.589-16.443-12.589H93.846zm22.487 12.59c0 4.392-3.539 5.517-7.732 5.517h-6.588V7.821h6.588c4.193 0 7.732 1.072 7.732 5.518zm21.996 24.91V22.929h6.152l10.4 15.321h9.038l-13.068-19.232L163.211.75h-9.093l-9.637 14.893h-6.152V.75h-8.167v37.5h8.167zm25.493-18.75c0 10.179 6.752 19.5 20.254 19.5 13.503 0 20.254-9.321 20.254-19.5S197.579 0 184.076 0c-13.502 0-20.254 9.321-20.254 19.5zm32.124 0c0 6.59-3.975 12.054-11.87 12.054-7.949 0-11.924-5.465-11.924-12.054 0-6.59 3.975-12.054 11.924-12.054 7.895 0 11.87 5.465 11.87 12.054zM235.659.75v15.107h-17.096V.75h-8.167v37.5h8.167V23.143h17.096V38.25h8.167V.75h-8.167zm12.941 0v7.232h11.706V38.25h8.112V7.982h11.707V.75H248.6zm32.966 0v7.232h11.706V38.25h8.112V7.982h11.706V.75h-31.524zm36.341 0v37.5h8.167V25.929h6.207c9.202 0 16.443-2.893 16.443-12.59 0-9.696-7.241-12.589-16.443-12.589h-14.374zm22.487 12.59c0 4.392-3.539 5.517-7.732 5.517h-6.588V7.821h6.588c4.193 0 7.732 1.072 7.732 5.518zm14.785 24.91l2.832-7.018h17.423l2.776 7.018h8.44L371.132.75h-8.82l-15.572 37.5h8.439zm10.672-27.107c.327-.75.599-1.5.871-2.947.272 1.447.545 2.197.817 2.947l5.336 13.446H360.57l5.281-13.446zM416.174.75v15.107h-17.097V.75h-8.167v37.5h8.167V23.143h17.097V38.25h8.167V.75h-8.167zm14.192 19.179C430.366 33 440.766 39 450.947 39c4.029 0 7.786-.857 11.053-2.41v-7.876c-2.287 2.036-5.88 3.107-9.8 3.107-6.643 0-13.503-3.642-13.449-11.892 0-9.054 6.752-12.804 13.449-12.804 3.539 0 7.078 1.071 9.528 2.946v-7.66C458.461.804 454.65 0 450.838 0c-10.181 0-20.417 6.214-20.472 19.929zM55 59.166v1.105h3.517v8.563h1.2v-8.563h3.517v-1.105H55zm16.89 0v9.668h1.2V65.41h2.217c2.316 0 4.245-.705 4.245-3.122s-1.93-3.121-4.245-3.121H71.89zm6.447 3.121c0 1.63-1.344 2.017-2.973 2.017H73.09V60.27h2.273c1.644 0 2.973.373 2.973 2.016zm9.483 6.547l1.03-2.334h5.39l1.029 2.334h1.286l-4.346-9.668h-1.33l-4.36 9.668h1.302zm3.56-8.108c.057-.124.1-.234.157-.372.058.138.1.248.158.373l2.073 4.696h-4.446l2.058-4.697zm20.883-1.56v4.268h-5.933v-4.268h-1.201v9.668h1.201V64.54h5.933v4.295h1.2v-9.668h-1.2zm10.301 4.904c-.014 3.217 2.73 4.93 5.246 4.93 1.072 0 2.073-.235 2.902-.65v-1.16c-.686.47-1.615.705-2.645.705-2.072 0-4.302-1.243-4.288-3.826.014-2.762 2.173-3.964 4.246-3.964.943 0 1.887.235 2.616.704v-1.16a6.24 6.24 0 00-2.817-.649c-2.601 0-5.246 1.713-5.26 5.07zm18.429 4.764v-8.563h5.761v8.563h1.201v-9.668h-8.162v9.668h1.2zM157.059 64c0 2.5 1.73 5 5.233 5 3.502 0 5.232-2.5 5.232-5s-1.73-5-5.232-5c-3.503 0-5.233 2.5-5.233 5zm9.25 0c0 1.989-1.301 3.895-4.017 3.895-2.717 0-4.017-1.906-4.017-3.895s1.3-3.895 4.017-3.895c2.716 0 4.017 1.906 4.017 3.895zm10.324-4.834v9.668h1.201V65.41h2.216c2.316 0 4.246-.705 4.246-3.122s-1.93-3.121-4.246-3.121h-3.417zm6.448 3.121c0 1.63-1.344 2.017-2.974 2.017h-2.273V60.27h2.273c1.644 0 2.974.373 2.974 2.016zm9.036-3.121v1.105h3.517v8.563h1.201v-8.563h3.516v-1.105h-8.234zm24.024 0v4.268h-5.933v-4.268h-1.201v9.668h1.201V64.54h5.933v4.295h1.2v-9.668h-1.2zm11.058 9.668l1.03-2.334h5.389l1.029 2.334h1.287l-4.346-9.668h-1.329l-4.361 9.668h1.301zm3.56-8.108c.057-.124.1-.234.157-.372.057.138.1.248.157.373l2.073 4.696H228.7l2.059-4.697zm14.222 8.108l2.831-3.536h2.587v3.536h1.201v-9.668h-3.774c-2.015 0-3.874.925-3.874 3.066 0 1.657 1.101 2.583 2.53 2.914l-2.959 3.688h1.458zm.215-6.602c0-1.381 1.158-1.961 2.587-1.961h2.616v3.922h-2.616c-1.429 0-2.587-.58-2.587-1.961zm28.084 6.602v-4.378h2.316l3.274 4.378h1.372l-3.702-4.958 3.402-4.71h-1.373l-3.016 4.185h-2.273v-4.185h-1.201v9.668h1.201zM287.615 64c0 2.5 1.73 5 5.232 5 3.503 0 5.232-2.5 5.232-5s-1.729-5-5.232-5c-3.502 0-5.232 2.5-5.232 5zm9.249 0c0 1.989-1.301 3.895-4.017 3.895S288.83 65.989 288.83 64s1.301-3.895 4.017-3.895 4.017 1.906 4.017 3.895zm19.617-4.834l-4.131 5.967-4.131-5.967h-1.03v9.668h1.201v-7.472l3.588 5.193h.744l3.588-5.193v7.472h1.2v-9.668h-1.029zm12.012 9.668v-8.563h5.761v8.563h1.201v-9.668h-8.163v9.668h1.201zm16.824 0l1.029-2.334h5.389l1.029 2.334h1.287l-4.346-9.668h-1.329l-4.36 9.668h1.301zm3.559-8.108c.057-.124.1-.234.157-.372.058.138.1.248.158.373l2.072 4.696h-4.445l2.058-4.697zm20.883-1.56v4.268h-5.933v-4.268h-1.201v9.668h1.201V64.54h5.933v4.295h1.2v-9.668h-1.2zm19.307 9.668v-9.668h-1.115l-6.019 7.72v-7.719h-1.2v9.668h1.115l6.018-7.735v7.735h1.201zm10.315 0l2.831-3.536h2.587v3.536H406v-9.668h-3.774c-2.016 0-3.874.925-3.874 3.066 0 1.657 1.101 2.583 2.53 2.914l-2.959 3.688h1.458zm.215-6.602c0-1.381 1.158-1.961 2.587-1.961h2.616v3.922h-2.616c-1.429 0-2.587-.58-2.587-1.961z" fill="#fff"/></svg>