<svg width="100" height="100" fill="none" xmlns="http://www.w3.org/2000/svg"><path d="M54.688 78.125h3.124v3.125h-3.124v-3.125z" fill="url(#paint0_linear)"/><path d="M42.188 78.125h3.124v3.125h-3.124v-3.125z" fill="url(#paint1_linear)"/><path d="M88.893 89.258c-1.33.734-2.48 1.367-4.91 1.367-2.429 0-3.578-.634-4.909-1.367-1.493-.824-3.184-1.758-6.42-1.758-3.234 0-4.925.933-6.418 1.758-1.33.734-2.48 1.367-4.91 1.367s-3.578-.634-4.909-1.367c-1.492-.824-3.183-1.758-6.419-1.758-3.235 0-4.925.933-6.418 1.758-1.33.734-2.48 1.367-4.909 1.367-2.43 0-3.579-.634-4.91-1.367-1.492-.824-3.183-1.758-6.418-1.758-3.235 0-4.926.933-6.419 1.758-1.33.734-2.48 1.367-4.909 1.367s-3.579-.634-4.909-1.367C9.613 88.434 7.922 87.5 4.688 87.5v3.125c2.429 0 3.578.634 4.908 1.367 1.493.824 3.184 1.758 6.419 1.758 3.235 0 4.926-.933 6.419-1.758 1.33-.734 2.48-1.367 4.91-1.367 2.428 0 3.578.634 4.908 1.367 1.493.824 3.185 1.758 6.42 1.758 3.234 0 4.925-.933 6.418-1.758 1.33-.734 2.479-1.367 4.908-1.367 2.43 0 3.579.634 4.91 1.367 1.492.824 3.183 1.758 6.419 1.758 3.235 0 4.926-.933 6.419-1.758 1.33-.734 2.48-1.367 4.909-1.367s3.579.634 4.91 1.367c1.492.824 3.184 1.758 6.419 1.758 3.234 0 4.926-.933 6.419-1.758 1.33-.734 2.48-1.367 4.91-1.367V87.5c-3.235 0-4.927.933-6.42 1.758z" fill="url(#paint2_linear)"/><path d="M15.281 87.879l3.032-.758-2.31-9.236 32.434-4.23v10.72h3.126v-10.72l32.433 4.23-2.309 9.236 3.032.758 2.734-10.938a1.563 1.563 0 00-1.313-1.928l-35.938-4.688a1.581 1.581 0 00-.404 0L13.86 75.014a1.564 1.564 0 00-1.313 1.928L15.28 87.88z" fill="url(#paint3_linear)"/><path d="M20.313 57.813h28.125v9.374h3.124v-9.374h28.126v14.062h3.124V56.25a1.563 1.563 0 00-1.562-1.563h-1.563V39.063a1.563 1.563 0 00-1.562-1.563h-56.25a1.563 1.563 0 00-1.563 1.563v15.624H18.75a1.563 1.563 0 00-1.563 1.563v15.625h3.125V57.812zm21.875-3.126V40.626h15.624v14.063H42.188zm34.374 0H60.938V40.626h15.624v14.063zM23.438 40.626h15.625v14.063H23.437V40.624z" fill="url(#paint4_linear)"/><path d="M23.438 60.938h3.125v9.374h-3.125v-9.374z" fill="url(#paint5_linear)"/><path d="M29.688 60.938h3.125v7.812h-3.126v-7.813z" fill="url(#paint6_linear)"/><path d="M35.938 60.938h3.124v7.812h-3.124v-7.813z" fill="url(#paint7_linear)"/><path d="M42.188 60.938h3.124v7.812h-3.124v-7.813z" fill="url(#paint8_linear)"/><path d="M73.438 60.938h3.124v9.374h-3.124v-9.374z" fill="url(#paint9_linear)"/><path d="M67.188 60.938h3.124v7.812h-3.124v-7.813z" fill="url(#paint10_linear)"/><path d="M60.938 60.938h3.124v7.812h-3.124v-7.813z" fill="url(#paint11_linear)"/><path d="M54.688 60.938h3.124v7.812h-3.124v-7.813z" fill="url(#paint12_linear)"/><path d="M23.438 28.125a1.562 1.562 0 001.256 1.532l6.556 1.311v3.407h3.125v-7.813h31.25v7.813h3.125v-3.407l6.556-1.31a1.562 1.562 0 001.257-1.533V25h3.124v-3.125h-3.124V18.75A1.563 1.563 0 0075 17.187H60.433l-1.898-4.743A4.695 4.695 0 0062.5 7.812V4.688a1.563 1.563 0 00-1.563-1.562H39.064A1.563 1.563 0 0037.5 4.688v3.125a4.696 4.696 0 003.965 4.631l-1.898 4.743H25a1.563 1.563 0 00-1.563 1.563v3.125h-3.125V25h3.125v3.125zM40.624 7.812V6.25h18.75v1.563a1.564 1.564 0 01-1.563 1.562H42.188a1.564 1.564 0 01-1.563-1.563zm4.183 4.688h10.384l1.875 4.688H42.933l1.875-4.688zm-18.245 7.813h46.874v6.53l-4.687.938V25a1.563 1.563 0 00-1.563-1.563H32.813A1.563 1.563 0 0031.25 25v2.781l-4.688-.937v-6.532z" fill="url(#paint13_linear)"/><path d="M37.453 29.69h6.25v3.126h-6.25V29.69z" fill="url(#paint14_linear)"/><path d="M46.875 29.688h6.25v3.125h-6.25v-3.126z" fill="url(#paint15_linear)"/><path d="M56.25 29.688h6.25v3.125h-6.25v-3.126z" fill="url(#paint16_linear)"/><path d="M26.563 43.75h3.125v7.813h-3.125V43.75z" fill="url(#paint17_linear)"/><path d="M32.813 43.75h3.124v7.813h-3.124V43.75z" fill="url(#paint18_linear)"/><path d="M45.313 43.75h3.124v7.813h-3.124V43.75z" fill="url(#paint19_linear)"/><path d="M51.563 43.75h3.124v7.813h-3.124V43.75z" fill="url(#paint20_linear)"/><path d="M64.063 43.75h3.124v7.813h-3.124V43.75z" fill="url(#paint21_linear)"/><path d="M70.313 43.75h3.124v7.813h-3.124V43.75z" fill="url(#paint22_linear)"/><defs><linearGradient id="paint0_linear" x1="57.719" y1="80.703" x2="56.116" y2="77.424" gradientUnits="userSpaceOnUse"><stop stop-color="#2D2E83"/><stop offset="1" stop-color="#4A84C5"/></linearGradient><linearGradient id="paint1_linear" x1="45.219" y1="80.703" x2="43.616" y2="77.424" gradientUnits="userSpaceOnUse"><stop stop-color="#2D2E83"/><stop offset="1" stop-color="#4A84C5"/></linearGradient><linearGradient id="paint2_linear" x1="92.615" y1="92.656" x2="92.341" y2="84.538" gradientUnits="userSpaceOnUse"><stop stop-color="#2D2E83"/><stop offset="1" stop-color="#4A84C5"/></linearGradient><linearGradient id="paint3_linear" x1="85.267" y1="84.805" x2="82.685" y2="62.258" gradientUnits="userSpaceOnUse"><stop stop-color="#2D2E83"/><stop offset="1" stop-color="#4A84C5"/></linearGradient><linearGradient id="paint4_linear" x1="80.859" y1="65.861" x2="70.114" y2="23.913" gradientUnits="userSpaceOnUse"><stop stop-color="#2D2E83"/><stop offset="1" stop-color="#4A84C5"/></linearGradient><linearGradient id="paint5_linear" x1="26.47" y1="68.672" x2="20.796" y2="64.805" gradientUnits="userSpaceOnUse"><stop stop-color="#2D2E83"/><stop offset="1" stop-color="#4A84C5"/></linearGradient><linearGradient id="paint6_linear" x1="32.719" y1="67.383" x2="27.741" y2="63.311" gradientUnits="userSpaceOnUse"><stop stop-color="#2D2E83"/><stop offset="1" stop-color="#4A84C5"/></linearGradient><linearGradient id="paint7_linear" x1="38.969" y1="67.383" x2="33.991" y2="63.311" gradientUnits="userSpaceOnUse"><stop stop-color="#2D2E83"/><stop offset="1" stop-color="#4A84C5"/></linearGradient><linearGradient id="paint8_linear" x1="45.219" y1="67.383" x2="40.241" y2="63.311" gradientUnits="userSpaceOnUse"><stop stop-color="#2D2E83"/><stop offset="1" stop-color="#4A84C5"/></linearGradient><linearGradient id="paint9_linear" x1="76.469" y1="68.672" x2="70.796" y2="64.805" gradientUnits="userSpaceOnUse"><stop stop-color="#2D2E83"/><stop offset="1" stop-color="#4A84C5"/></linearGradient><linearGradient id="paint10_linear" x1="70.219" y1="67.383" x2="65.241" y2="63.311" gradientUnits="userSpaceOnUse"><stop stop-color="#2D2E83"/><stop offset="1" stop-color="#4A84C5"/></linearGradient><linearGradient id="paint11_linear" x1="63.969" y1="67.383" x2="58.991" y2="63.311" gradientUnits="userSpaceOnUse"><stop stop-color="#2D2E83"/><stop offset="1" stop-color="#4A84C5"/></linearGradient><linearGradient id="paint12_linear" x1="57.719" y1="67.383" x2="52.741" y2="63.311" gradientUnits="userSpaceOnUse"><stop stop-color="#2D2E83"/><stop offset="1" stop-color="#4A84C5"/></linearGradient><linearGradient id="paint13_linear" x1="77.92" y1="28.907" x2="68.111" y2="-9.204" gradientUnits="userSpaceOnUse"><stop stop-color="#2D2E83"/><stop offset="1" stop-color="#4A84C5"/></linearGradient><linearGradient id="paint14_linear" x1="43.517" y1="32.269" x2="42.579" y2="28.435" gradientUnits="userSpaceOnUse"><stop stop-color="#2D2E83"/><stop offset="1" stop-color="#4A84C5"/></linearGradient><linearGradient id="paint15_linear" x1="52.939" y1="32.266" x2="52.001" y2="28.431" gradientUnits="userSpaceOnUse"><stop stop-color="#2D2E83"/><stop offset="1" stop-color="#4A84C5"/></linearGradient><linearGradient id="paint16_linear" x1="62.314" y1="32.266" x2="61.376" y2="28.431" gradientUnits="userSpaceOnUse"><stop stop-color="#2D2E83"/><stop offset="1" stop-color="#4A84C5"/></linearGradient><linearGradient id="paint17_linear" x1="29.595" y1="50.196" x2="24.616" y2="46.123" gradientUnits="userSpaceOnUse"><stop stop-color="#2D2E83"/><stop offset="1" stop-color="#4A84C5"/></linearGradient><linearGradient id="paint18_linear" x1="35.844" y1="50.196" x2="30.866" y2="46.123" gradientUnits="userSpaceOnUse"><stop stop-color="#2D2E83"/><stop offset="1" stop-color="#4A84C5"/></linearGradient><linearGradient id="paint19_linear" x1="48.344" y1="50.196" x2="43.366" y2="46.123" gradientUnits="userSpaceOnUse"><stop stop-color="#2D2E83"/><stop offset="1" stop-color="#4A84C5"/></linearGradient><linearGradient id="paint20_linear" x1="54.594" y1="50.196" x2="49.616" y2="46.123" gradientUnits="userSpaceOnUse"><stop stop-color="#2D2E83"/><stop offset="1" stop-color="#4A84C5"/></linearGradient><linearGradient id="paint21_linear" x1="67.094" y1="50.196" x2="62.116" y2="46.123" gradientUnits="userSpaceOnUse"><stop stop-color="#2D2E83"/><stop offset="1" stop-color="#4A84C5"/></linearGradient><linearGradient id="paint22_linear" x1="73.344" y1="50.196" x2="68.366" y2="46.123" gradientUnits="userSpaceOnUse"><stop stop-color="#2D2E83"/><stop offset="1" stop-color="#4A84C5"/></linearGradient></defs></svg>