<svg width="100" height="100" fill="none" xmlns="http://www.w3.org/2000/svg"><path d="M46.875 79.134V40.216l37.5-11.538v18.197H87.5V26.562a1.563 1.563 0 00-1.103-1.493l-40.625-12.5c-.3-.092-.62-.092-.92 0L4.229 25.07a1.563 1.563 0 00-1.103 1.494V68.75a1.562 1.562 0 001.103 1.493l40.625 12.5c.3.093.62.093.92 0l9.374-2.884-.92-2.987-7.352 2.262zm-1.563-41.706L37.426 35 72.25 23.985l8.375 2.578-35.313 10.865zm-21.14-6.505l34.2-11.208 8.625 2.654-34.824 11.016-8.001-2.462zm6.277 5.201l-2.057 14.847-6.594-2.028-1.074-15.811 9.725 2.992zm14.863-20.427l7.884 2.426-34.2 11.207L10 26.563l35.313-10.866zM6.25 28.677l11.275 3.47 1.229 18.08a1.563 1.563 0 001.099 1.386l9.375 2.885a1.563 1.563 0 002.007-1.28l2.24-16.164 10.275 3.162v38.918L6.25 67.596V28.678z" fill="url(#paint0_linear)"/><path d="M24.553 70.233l.919-2.988 3.126.962-.92 2.987-3.125-.961z" fill="url(#paint1_linear)"/><path d="M30.803 72.155l.92-2.988 3.125.962-.919 2.987-3.126-.961z" fill="url(#paint2_linear)"/><path d="M37.054 74.077l.918-2.987 3.126.96-.919 2.988-3.125-.96z" fill="url(#paint3_linear)"/><path d="M69.851 16.693l.919-2.988 3.126.962-.92 2.987-3.125-.961z" fill="url(#paint4_linear)"/><path d="M44.395 9.44a3.116 3.116 0 011.837 0l20.497 6.308.92-2.987L47.15 6.454a6.226 6.226 0 00-3.676 0L24.54 12.28l.919 2.987L44.395 9.44z" fill="url(#paint5_linear)"/><path d="M93.75 50H62.5a4.693 4.693 0 00-4.688 4.688v31.25a1.563 1.563 0 00.776 1.35l18.75 10.937a1.563 1.563 0 001.574 0l18.75-10.938a1.562 1.562 0 00.775-1.35v-31.25A4.693 4.693 0 0093.75 50zm1.563 35.04L78.124 95.064 60.937 85.039V54.687a1.564 1.564 0 011.563-1.562h31.25a1.564 1.564 0 011.563 1.563v30.351z" fill="url(#paint6_linear)"/><path d="M90.625 56.25h-25a1.563 1.563 0 00-1.563 1.563v24.535a1.562 1.562 0 00.776 1.35l12.5 7.291a1.562 1.562 0 001.574 0l12.5-7.292a1.562 1.562 0 00.775-1.35V57.814a1.563 1.563 0 00-1.562-1.563zm-1.563 15.625h-9.374v-12.5h9.374v12.5zm-12.5-12.5v12.5h-9.374v-12.5h9.374zM67.189 75h9.374v11.919l-9.374-5.469V75zm12.5 11.919V75h9.374v6.45l-9.374 5.469z" fill="url(#paint7_linear)"/><defs><linearGradient id="paint0_linear" x1="84.988" y1="70.51" x2="53.035" y2="-7.9" gradientUnits="userSpaceOnUse"><stop stop-color="#2D2E83"/><stop offset="1" stop-color="#4A84C5"/></linearGradient><linearGradient id="paint1_linear" x1="28.023" y1="68.127" x2="24.295" y2="68.785" gradientUnits="userSpaceOnUse"><stop stop-color="#2D2E83"/><stop offset="1" stop-color="#4A84C5"/></linearGradient><linearGradient id="paint2_linear" x1="34.274" y1="70.049" x2="30.546" y2="70.707" gradientUnits="userSpaceOnUse"><stop stop-color="#2D2E83"/><stop offset="1" stop-color="#4A84C5"/></linearGradient><linearGradient id="paint3_linear" x1="40.524" y1="71.972" x2="36.796" y2="72.629" gradientUnits="userSpaceOnUse"><stop stop-color="#2D2E83"/><stop offset="1" stop-color="#4A84C5"/></linearGradient><linearGradient id="paint4_linear" x1="73.321" y1="14.587" x2="69.593" y2="15.245" gradientUnits="userSpaceOnUse"><stop stop-color="#2D2E83"/><stop offset="1" stop-color="#4A84C5"/></linearGradient><linearGradient id="paint5_linear" x1="66.365" y1="14.073" x2="65.029" y2="1.772" gradientUnits="userSpaceOnUse"><stop stop-color="#2D2E83"/><stop offset="1" stop-color="#4A84C5"/></linearGradient><linearGradient id="paint6_linear" x1="97.228" y1="89.963" x2="69.821" y2="42.956" gradientUnits="userSpaceOnUse"><stop stop-color="#2D2E83"/><stop offset="1" stop-color="#4A84C5"/></linearGradient><linearGradient id="paint7_linear" x1="91.35" y1="85.087" x2="71.179" y2="51.895" gradientUnits="userSpaceOnUse"><stop stop-color="#2D2E83"/><stop offset="1" stop-color="#4A84C5"/></linearGradient></defs></svg>