<svg width="100" height="79" fill="none" xmlns="http://www.w3.org/2000/svg"><path d="M96.667 50.472v.105H90v-.105h-3.333v.105h-3.334v-.105H80v.105h-6.667v-.105H70v.105H26.667v-.105h-3.334v.105H1.667C.75 50.577 0 51.329 0 52.249v25.079C0 78.248.75 79 1.667 79h96.666c.917 0 1.667-.752 1.667-1.672V50.472h-3.333zM43.333 75.656h-40V53.921h40v21.735zm13.334-16.72h-3.334v3.344h3.334v5.016h-3.334v3.344h3.334v5.016h-10V53.921h10v5.016zM70 75.656H60V70.64h3.333v-3.344H60V62.28h3.333v-3.343H60V53.92h10v21.735zm13.333-16.72H80v3.344h3.333v13.376h-10V53.921h10v5.016zm13.334 16.72h-10V70.64H90v-3.344h-3.333V53.921h10v21.735z" fill="url(#paint0_linear)"/><path d="M98.333 0H25c-.917 0-1.667.752-1.667 1.672v23.407H1.667A1.675 1.675 0 000 26.751v25.08c0 .92.75 1.672 1.667 1.672h96.666c.917 0 1.667-.753 1.667-1.672V1.672C100 .752 99.25 0 98.333 0zm-25 3.344H80V16.72h-3.333v3.344H80v5.015h-6.667V3.344zm-30 46.815h-40V28.423h40V50.16zm13.334-16.72h-3.334v3.344h3.334V41.8h-3.334v3.344h3.334v5.016h-10V28.423h10v5.016zM70 50.16H60v-5.016h3.333V41.8H60v-5.016h3.333V33.44H60v-5.016h10V50.16zm0-25.08H26.667V3.344H70v21.735zm13.333 8.36H80v3.344h3.333V50.16h-10V28.423h10v5.016zm0-30.095h3.334V25.08h-3.334V3.344zM96.667 50.16h-10v-5.016H90V41.8h-3.333V28.423h10V50.16zm0-25.08H90v-5.015h3.333V16.72H90V3.344h6.667v21.735z" fill="url(#paint1_linear)"/><path d="M33.333 6.688H30v15.047h3.333V6.688z" fill="url(#paint2_linear)"/><path d="M41.667 6.688h-3.334v15.047h3.334V6.688z" fill="url(#paint3_linear)"/><path d="M50 6.688h-3.333v15.047H50V6.688z" fill="url(#paint4_linear)"/><path d="M58.333 6.688H55v15.047h3.333V6.688z" fill="url(#paint5_linear)"/><path d="M66.667 6.688h-3.334v15.047h3.334V6.688z" fill="url(#paint6_linear)"/><path d="M11.667 57.265H8.333v15.047h3.334V57.265z" fill="url(#paint7_linear)"/><path d="M18.333 57.265H15v15.047h3.333V57.265z" fill="url(#paint8_linear)"/><path d="M25 57.265h-3.333v15.047H25V57.265z" fill="url(#paint9_linear)"/><path d="M31.667 57.265h-3.334v15.047h3.334V57.265z" fill="url(#paint10_linear)"/><path d="M38.333 57.265H35v15.047h3.333V57.265z" fill="url(#paint11_linear)"/><defs><linearGradient id="paint0_linear" x1="97.023" y1="74.009" x2="91.947" y2="37.62" gradientUnits="userSpaceOnUse"><stop stop-color="#2D2E83"/><stop offset="1" stop-color="#4A84C5"/></linearGradient><linearGradient id="paint1_linear" x1="97.023" y1="44.142" x2="79.986" y2="-20.974" gradientUnits="userSpaceOnUse"><stop stop-color="#2D2E83"/><stop offset="1" stop-color="#4A84C5"/></linearGradient><linearGradient id="paint2_linear" x1="33.234" y1="19.103" x2="25.879" y2="15.771" gradientUnits="userSpaceOnUse"><stop stop-color="#2D2E83"/><stop offset="1" stop-color="#4A84C5"/></linearGradient><linearGradient id="paint3_linear" x1="41.567" y1="19.103" x2="34.213" y2="15.771" gradientUnits="userSpaceOnUse"><stop stop-color="#2D2E83"/><stop offset="1" stop-color="#4A84C5"/></linearGradient><linearGradient id="paint4_linear" x1="49.901" y1="19.103" x2="42.546" y2="15.771" gradientUnits="userSpaceOnUse"><stop stop-color="#2D2E83"/><stop offset="1" stop-color="#4A84C5"/></linearGradient><linearGradient id="paint5_linear" x1="58.234" y1="19.103" x2="50.879" y2="15.771" gradientUnits="userSpaceOnUse"><stop stop-color="#2D2E83"/><stop offset="1" stop-color="#4A84C5"/></linearGradient><linearGradient id="paint6_linear" x1="66.567" y1="19.103" x2="59.213" y2="15.771" gradientUnits="userSpaceOnUse"><stop stop-color="#2D2E83"/><stop offset="1" stop-color="#4A84C5"/></linearGradient><linearGradient id="paint7_linear" x1="11.567" y1="69.68" x2="4.213" y2="66.348" gradientUnits="userSpaceOnUse"><stop stop-color="#2D2E83"/><stop offset="1" stop-color="#4A84C5"/></linearGradient><linearGradient id="paint8_linear" x1="18.234" y1="69.68" x2="10.879" y2="66.348" gradientUnits="userSpaceOnUse"><stop stop-color="#2D2E83"/><stop offset="1" stop-color="#4A84C5"/></linearGradient><linearGradient id="paint9_linear" x1="24.901" y1="69.68" x2="17.546" y2="66.348" gradientUnits="userSpaceOnUse"><stop stop-color="#2D2E83"/><stop offset="1" stop-color="#4A84C5"/></linearGradient><linearGradient id="paint10_linear" x1="31.567" y1="69.68" x2="24.213" y2="66.348" gradientUnits="userSpaceOnUse"><stop stop-color="#2D2E83"/><stop offset="1" stop-color="#4A84C5"/></linearGradient><linearGradient id="paint11_linear" x1="38.234" y1="69.68" x2="30.879" y2="66.348" gradientUnits="userSpaceOnUse"><stop stop-color="#2D2E83"/><stop offset="1" stop-color="#4A84C5"/></linearGradient></defs></svg>