<svg width="100" height="78" fill="none" xmlns="http://www.w3.org/2000/svg"><path d="M98.535.914H1.465C.655.914 0 1.57 0 2.38v73.24c0 .81.656 1.465 1.465 1.465h97.07c.81 0 1.465-.656 1.465-1.465V2.38c0-.81-.656-1.465-1.465-1.465zM72.383 74.156H59.414v-2.93h12.969v2.93zm1.465-5.86H57.949c-.809 0-1.465.657-1.465 1.466v4.394H43.516v-4.394c0-.81-.656-1.465-1.465-1.465H26.152c-.809 0-1.465.656-1.465 1.465v4.394H8.79v-8.789h82.422v8.79H75.313v-4.395c0-.81-.656-1.465-1.465-1.465zm-33.262 5.86H27.617v-2.93h12.969v2.93zM91.21 6.773H8.789v-2.93h82.422v2.93zM2.93 3.843h2.93v54.2a1.465 1.465 0 002.93 0V9.703h82.42v52.734H7.325c-.809 0-1.465.656-1.465 1.465v10.254H2.93V3.844zm94.14 70.313h-2.93V3.844h2.93v70.312z" fill="url(#paint0_linear)"/><path d="M13.184 50.718h7.43c.713 4.963 4.991 8.79 10.148 8.79 5.156 0 9.434-3.827 10.147-8.79h15.252c.713 4.963 4.991 8.79 10.148 8.79 5.156 0 9.434-3.827 10.147-8.79h10.36c.81 0 1.465-.655 1.465-1.464v-9.066a7.342 7.342 0 00-4.843-6.89l-10.403-3.746-12.044-14.311a7.309 7.309 0 00-5.604-2.608H29.965c-2.167 0-4.21.95-5.604 2.608L13.439 28.218a7.335 7.335 0 00-1.72 4.716v16.32c0 .809.656 1.465 1.465 1.465zm1.464-5.859H21.5a10.183 10.183 0 00-.885 2.93h-5.966v-2.93zm16.114 11.719c-4.039 0-7.325-3.286-7.325-7.324 0-4.039 3.286-7.325 7.325-7.325 4.038 0 7.324 3.286 7.324 7.325 0 4.038-3.286 7.324-7.324 7.324zm35.547 0c-4.04 0-7.325-3.286-7.325-7.324 0-4.039 3.286-7.325 7.325-7.325 4.038 0 7.324 3.286 7.324 7.325 0 4.038-3.286 7.324-7.324 7.324zm10.147-8.79a10.168 10.168 0 00-.885-2.929h9.78v2.93h-8.895zM15.681 30.106l10.921-12.978a4.385 4.385 0 013.363-1.565h25.422c1.3 0 2.525.57 3.362 1.565L71.047 31.74c.166.198.382.348.625.435l10.773 3.879a4.406 4.406 0 012.906 4.134v1.741H73.475A10.218 10.218 0 0066.308 39c-5.156 0-9.434 3.828-10.147 8.79H40.909C40.196 42.828 35.918 39 30.761 39a10.22 10.22 0 00-7.166 2.93h-8.947v-8.995a4.4 4.4 0 011.033-2.83z" fill="url(#paint1_linear)"/><path d="M30.762 44.86a4.4 4.4 0 00-4.395 4.394 4.4 4.4 0 004.395 4.394 4.4 4.4 0 004.394-4.394 4.4 4.4 0 00-4.394-4.395zm0 5.859a1.466 1.466 0 01-1.465-1.465c0-.808.657-1.465 1.465-1.465s1.465.657 1.465 1.465-.657 1.465-1.465 1.465z" fill="url(#paint2_linear)"/><path d="M66.309 44.86a4.4 4.4 0 00-4.395 4.394 4.4 4.4 0 004.395 4.394 4.4 4.4 0 004.394-4.394 4.4 4.4 0 00-4.394-4.395zm0 5.859a1.466 1.466 0 01-1.465-1.465c0-.808.657-1.465 1.465-1.465a1.466 1.466 0 010 2.93z" fill="url(#paint3_linear)"/><path d="M19.043 34.4h47.266a1.465 1.465 0 001.12-2.409L56.508 19.014a1.465 1.465 0 00-1.121-.522H29.965c-.433 0-.843.191-1.121.522L17.922 31.99a1.465 1.465 0 001.121 2.408zm44.118-2.93H38.086V21.422h16.62l8.455 10.047zM30.646 21.422h4.51v10.047H22.19l8.456-10.047z" fill="url(#paint4_linear)"/><defs><linearGradient id="paint0_linear" x1="97.023" y1="63.758" x2="64.623" y2="-23.224" gradientUnits="userSpaceOnUse"><stop stop-color="#2D2E83"/><stop offset="1" stop-color="#4A84C5"/></linearGradient><linearGradient id="paint1_linear" x1="86.002" y1="51.306" x2="69.254" y2="-4.634" gradientUnits="userSpaceOnUse"><stop stop-color="#2D2E83"/><stop offset="1" stop-color="#4A84C5"/></linearGradient><linearGradient id="paint2_linear" x1="34.895" y1="52.111" x2="30.384" y2="42.887" gradientUnits="userSpaceOnUse"><stop stop-color="#2D2E83"/><stop offset="1" stop-color="#4A84C5"/></linearGradient><linearGradient id="paint3_linear" x1="70.442" y1="52.111" x2="65.931" y2="42.887" gradientUnits="userSpaceOnUse"><stop stop-color="#2D2E83"/><stop offset="1" stop-color="#4A84C5"/></linearGradient><linearGradient id="paint4_linear" x1="66.279" y1="31.616" x2="63.149" y2="11.416" gradientUnits="userSpaceOnUse"><stop stop-color="#2D2E83"/><stop offset="1" stop-color="#4A84C5"/></linearGradient></defs></svg>