<svg width="100" height="100" fill="none" xmlns="http://www.w3.org/2000/svg"><path d="M90.625 1.563h-75c-4.308 0-7.813 3.504-7.813 7.812v60.938H6.25A4.693 4.693 0 001.562 75v18.75a4.693 4.693 0 004.688 4.688h25a4.693 4.693 0 004.688-4.688v-7.813h54.687c4.308 0 7.813-3.504 7.813-7.812V9.375c0-4.308-3.505-7.813-7.813-7.813zm-17.188 75V73.15a4.639 4.639 0 001.563.287 4.693 4.693 0 004.688-4.687V25A4.693 4.693 0 0075 20.312a4.64 4.64 0 00-1.563.288v-3.413h21.876v59.376H73.436zm-25 0H41.9A4.64 4.64 0 0042.188 75V62.5a4.64 4.64 0 00-.288-1.563h4.975c.55 0 1.072-.112 1.563-.287v15.913zm-17.187-6.25H17.187V62.5c0-.862.702-1.563 1.563-1.563h4.688v6.25h9.375v-6.25H37.5c.86 0 1.563.7 1.563 1.563V75c0 .862-.702 1.563-1.563 1.563h-1.563V75a4.693 4.693 0 00-4.687-4.688zm-14.063 6.25v3.124h-3.125v-6.25h9.376v6.25h-3.125v-3.124h-3.125zM37.5 57.813h-9.375c-.86 0-1.563-.7-1.563-1.563v-12.5c0-.86.702-1.563 1.563-1.563h4.688v6.25h9.374v-6.25h4.688c.86 0 1.563.702 1.563 1.563v12.5c0 .862-.702 1.563-1.563 1.563H37.5zM26.562 37.5V25c0-.86.702-1.563 1.563-1.563h4.688v6.25h9.374v-6.25h4.688c.86 0 1.563.702 1.563 1.563v12.5c0 .86-.702 1.563-1.563 1.563h-18.75c-.86 0-1.563-.702-1.563-1.563zm9.375-14.063h3.126v3.125h-3.126v-3.125zm0 18.75h3.126v3.126h-3.126v-3.126zm-9.374 18.75h3.125v3.126h-3.125v-3.126zM48.438 20.6a4.635 4.635 0 00-1.563-.288h-18.75A4.693 4.693 0 0023.437 25v12.5a4.65 4.65 0 001.22 3.125 4.65 4.65 0 00-1.22 3.125v12.5c0 .55.113 1.072.288 1.563H18.75c-.55 0-1.072.112-1.563.287V17.187h31.25V20.6zm3.124 35.65V16.803l18.75-5.358v70.858l-18.75-5.356V56.25zM73.439 25c0-.86.701-1.563 1.562-1.563.86 0 1.563.702 1.563 1.563v43.75c0 .862-.702 1.563-1.563 1.563-.86 0-1.563-.7-1.563-1.563V25zm0-10.938v-3.124h21.874v3.124H73.439zM15.624 4.688h75c2.034 0 3.753 1.31 4.4 3.125h-83.8c.647-1.815 2.366-3.125 4.4-3.125zm-4.688 6.25H60.72l-10.94 3.124H14.063v56.252h-3.126V10.937zM32.814 93.75c0 .862-.702 1.563-1.563 1.563h-25c-.86 0-1.563-.7-1.563-1.563V75c0-.862.702-1.563 1.563-1.563h4.688v9.376h15.624v-9.376h4.688c.86 0 1.563.7 1.563 1.563v18.75zm3.124-14.063h13.846l10.936 3.126H35.937v-3.126zm54.688 3.126H73.437v-3.126h21.588c-.647 1.815-2.366 3.126-4.4 3.126z" fill="url(#paint0_linear)"/><path d="M87.5 20.313A4.693 4.693 0 0082.812 25v43.75a4.693 4.693 0 004.688 4.688 4.693 4.693 0 004.688-4.688V25a4.693 4.693 0 00-4.688-4.688zm1.563 48.437c0 .862-.702 1.563-1.563 1.563-.86 0-1.563-.7-1.563-1.563V25c0-.86.702-1.563 1.563-1.563.86 0 1.563.702 1.563 1.563v43.75z" fill="url(#paint1_linear)"/><defs><linearGradient id="paint0_linear" x1="95.553" y1="81.488" x2="45.84" y2="-20.174" gradientUnits="userSpaceOnUse"><stop stop-color="#2D2E83"/><stop offset="1" stop-color="#4A84C5"/></linearGradient><linearGradient id="paint1_linear" x1="91.908" y1="64.142" x2="69.851" y2="56.183" gradientUnits="userSpaceOnUse"><stop stop-color="#2D2E83"/><stop offset="1" stop-color="#4A84C5"/></linearGradient></defs></svg>